<svg width="785" height="971" viewBox="0 0 785 971" fill="none" xmlns="http://www.w3.org/2000/svg">
<circle cx="392.254" cy="578.746" r="392.254" fill="url(#paint0_linear_153_747)"/>
<path d="M76.5265 79.0327L118.727 54.1395C122.046 49.4112 126.351 45.4605 131.344 42.5602C136.336 39.6599 141.898 37.8789 147.644 37.3403C146.593 28.456 148.969 18.3861 154.674 8.06175C155.73 6.1527 157.172 4.48577 158.909 3.16793C160.646 1.85009 162.639 0.910452 164.76 0.409324C166.848 -0.0827866 169.017 -0.131748 171.125 0.265587C173.234 0.662922 175.236 1.49776 177.003 2.71641C193.278 13.9767 199.486 31.195 201.68 39.889C212.274 46.4343 224.121 62.6335 233.294 83.6389C246.364 114.008 251.511 147.206 248.252 180.114C245.486 207.214 246.422 232.576 251.033 255.499C252.688 263.752 256.585 271.387 262.294 277.564C268.004 283.741 275.305 288.22 283.393 290.509C316.649 300.049 382.691 313.353 451.369 295.265C501.72 282.005 553.355 299.456 569.518 305.804C587.859 294.112 608.157 291.822 629.93 299.017C654.957 307.278 671.72 322.253 679.754 343.521C697.375 390.166 665.914 451.493 659.073 463.92C658.811 469.956 658.274 476.271 657.429 482.893C649.366 545.601 664.768 588.157 674.668 607.943C677.728 614.062 679.497 620.746 679.864 627.58C680.23 634.413 679.187 641.249 676.799 647.661C670.365 664.816 662.559 690.219 661.925 713.805C661.597 727.729 662.431 741.656 664.419 755.442C665.807 766.481 667.005 776.028 665.63 787C665.063 791.46 662.892 795.561 659.525 798.535C656.157 801.509 651.823 803.152 647.333 803.158H586.984C584.812 803.157 582.675 802.62 580.761 801.593C578.846 800.567 577.215 799.083 576.01 797.274C574.806 795.465 574.066 793.386 573.857 791.221C573.647 789.057 573.975 786.875 574.81 784.867H550.046C547.909 784.864 545.806 784.339 543.917 783.338C542.029 782.337 540.413 780.89 539.209 779.122C537.909 777.238 537.103 775.055 536.868 772.777C536.633 770.498 536.975 768.197 537.862 766.086C543.361 753.017 552.218 741.64 563.533 733.113C570.373 727.932 572.889 718.039 574.45 709.041C578.86 683.602 574.703 666.927 569.889 647.623C565.725 630.923 561.044 612.105 560.974 585.066C558.983 583.589 556.943 582.154 554.802 580.808C527.911 563.918 510.247 544.17 498.653 525.062C484.33 536.938 468.316 546.605 451.142 553.744C432.473 561.533 412.462 565.589 392.238 565.683C369.788 565.584 347.634 560.54 327.348 550.907C329.987 570.715 335.773 589.972 344.484 607.95C347.545 614.068 349.314 620.753 349.681 627.586C350.048 634.42 349.004 641.256 346.616 647.668C340.182 664.822 332.376 690.225 331.742 713.812C331.414 727.735 332.248 741.661 334.235 755.445C335.624 766.492 336.824 776.034 335.446 787.006C334.878 791.466 332.707 795.565 329.34 798.537C325.972 801.51 321.639 803.152 317.15 803.158H256.793C254.897 803.158 253.024 802.748 251.3 801.958C249.577 801.167 248.044 800.013 246.806 798.576C245.569 797.138 244.655 795.45 244.128 793.626C243.6 791.803 243.472 789.887 243.751 788.01L209.298 787.442C209.117 787.442 208.936 787.434 208.756 787.418C206.516 787.25 204.355 786.515 202.478 785.279C200.6 784.044 199.068 782.35 198.026 780.357C196.983 778.364 196.465 776.139 196.52 773.89C196.575 771.641 197.201 769.443 198.339 767.503C205.382 755.609 215.447 745.796 227.509 739.065C229.164 738.127 231.024 737.17 233.012 736.156C238.603 733.291 251.677 726.582 250.281 722.51C244.225 704.834 245.218 685.275 246.267 664.571C247.454 641.15 248.651 616.952 239.557 594.07C234.802 589.07 229.613 584.503 224.05 580.423C186.708 553.115 169.46 521.33 162.768 491.594C130.572 456.678 107.949 405.114 98.9783 346.013C91.4246 296.256 94.6391 246.133 107.171 218.34C124.6 179.682 126.662 158.157 126.089 148.103C124.432 146.337 122.618 144.725 120.67 143.287C120.606 143.238 120.543 143.19 120.483 143.14C113.567 137.855 106.192 133.202 98.4447 129.238C97.3305 128.653 96.0874 128.356 94.8292 128.376C87.4854 128.641 80.3123 126.12 74.7438 121.319C69.1753 116.517 65.6217 109.787 64.7934 102.475C64.288 97.8509 65.1263 93.1793 67.2076 89.0209C69.289 84.8626 72.5248 81.3943 76.5265 79.0327ZM575.096 748.44C568.838 753.129 563.543 758.982 559.499 765.679H587.92C592.184 761.102 596.964 757.036 602.163 753.56C605.55 751.336 608.358 748.335 610.354 744.806C612.35 741.277 613.476 737.322 613.639 733.27C614.51 705.582 612.3 645.52 581.175 605.015C582.661 617.833 585.107 630.522 588.49 642.973C593.603 663.499 598.44 682.883 593.338 712.327C591.139 725.011 587.252 739.222 575.096 748.427V748.44ZM241.759 753.24C239.96 754.162 238.261 755.032 236.943 755.778C231.024 759.078 225.703 763.356 221.206 768.431L254.807 768.987C259.761 763.045 265.545 757.849 271.98 753.56C275.367 751.336 278.175 748.335 280.171 744.806C282.166 741.277 283.293 737.322 283.456 733.27C284.244 707.443 281.054 681.648 273.998 656.794C271.839 649.429 269.231 642.205 266.187 635.161C266.42 645.631 265.914 655.845 265.421 665.55C264.463 684.354 263.57 702.115 268.423 716.285C275.21 736.087 253.449 747.248 241.759 753.24ZM83.8613 100.361C84.1481 102.848 85.3565 105.135 87.2474 106.772C89.1383 108.408 91.5739 109.274 94.0719 109.198C98.5276 109.058 102.948 110.03 106.936 112.025C114.509 115.902 121.778 120.345 128.683 125.317C129.444 125.866 130.168 126.402 130.869 126.928C143.933 130.305 155.006 129.421 163.8 124.261C178.474 115.653 182.972 97.6174 183.053 97.3118C183.338 96.0838 183.861 94.9239 184.594 93.8984C185.326 92.8729 186.253 92.002 187.321 91.3352C188.39 90.6684 189.579 90.2189 190.821 90.0124C192.063 89.8058 193.333 89.8463 194.559 90.1314C195.786 90.4165 196.944 90.9407 197.968 91.6741C198.992 92.4074 199.862 93.3356 200.527 94.4056C201.193 95.4756 201.642 96.6664 201.848 97.9101C202.055 99.1538 202.014 100.426 201.73 101.654C201.485 102.715 195.513 127.771 173.697 140.705C165.159 145.716 155.416 148.297 145.519 148.169H145.288C146.122 167.756 139.199 193.99 124.656 226.245C115.549 246.444 109.94 290.419 117.946 343.135C124.566 386.741 138.94 425.769 159.226 456.075C159.328 450.03 159.755 443.995 160.504 437.996C164.011 411.246 172.728 385.447 186.162 362.061C187.522 359.944 189.659 358.447 192.11 357.892C194.562 357.337 197.134 357.769 199.271 359.095C201.408 360.42 202.939 362.533 203.535 364.979C204.132 367.424 203.745 370.006 202.458 372.169C190.439 393.418 182.627 416.789 179.452 441.002C173.322 491.616 192.136 533.318 235.37 564.928C301.193 613.061 303.485 706.417 302.621 733.879C302.359 740.99 300.407 747.936 296.925 754.14C293.444 760.343 288.535 765.625 282.606 769.546C276.715 773.416 271.551 778.295 267.35 783.959H316.503C317.449 775.621 316.458 767.743 315.214 757.837C313.109 743.085 312.227 728.184 312.576 713.287C313.282 687.037 321.718 659.44 328.671 640.91C330.133 636.974 330.769 632.78 330.541 628.588C330.313 624.396 329.225 620.295 327.345 616.543C316.466 594.801 299.52 548.208 308.23 480.44C308.372 479.174 308.764 477.949 309.383 476.836C310.002 475.723 310.837 474.745 311.837 473.958C312.838 473.171 313.985 472.592 315.212 472.253C316.438 471.915 317.72 471.825 318.982 471.987C320.243 472.15 321.46 472.563 322.561 473.202C323.662 473.84 324.625 474.692 325.394 475.707C326.163 476.722 326.722 477.88 327.04 479.114C327.357 480.348 327.426 481.632 327.243 482.893C325.27 497.948 324.601 513.146 325.244 528.317C363.907 549.677 403.561 552.359 443.202 536.246C460.096 529.279 475.742 519.599 489.524 507.588C475.049 474.882 476.743 447.668 476.893 445.733C477.079 443.194 478.264 440.833 480.189 439.169C482.113 437.506 484.619 436.675 487.155 436.862C489.69 437.048 492.048 438.235 493.709 440.163C495.371 442.09 496.2 444.599 496.013 447.138C495.815 450.037 491.987 518.687 564.987 564.537C593.061 582.173 612.8 610.911 623.651 649.951C632.4 681.44 633.459 712.97 632.801 733.881C632.539 740.992 630.586 747.938 627.105 754.142C623.623 760.345 618.714 765.627 612.784 769.548C606.895 773.418 601.733 778.296 597.533 783.959H646.686C647.632 775.623 646.642 767.745 645.397 757.838C643.292 743.086 642.409 728.185 642.759 713.287C643.465 687.037 651.901 659.44 658.852 640.91C660.314 636.975 660.951 632.78 660.723 628.588C660.496 624.396 659.408 620.295 657.528 616.543C646.65 594.801 629.702 548.205 638.414 480.44C649.485 394.334 602.307 367.52 600.359 366.451C598.125 365.255 596.455 363.222 595.713 360.796C594.971 358.37 595.218 355.749 596.401 353.505C597.583 351.261 599.604 349.578 602.022 348.822C604.44 348.066 607.059 348.299 609.306 349.471C611.223 350.479 645.854 369.497 656.311 423.085C664.099 401.334 670.37 372.884 661.813 350.277C655.839 334.497 643.44 323.693 623.929 317.247C606.326 311.431 590.756 313.769 576.329 324.39C574.96 325.397 573.348 326.022 571.658 326.201C569.969 326.381 568.262 326.107 566.713 325.41C566.144 325.152 509.18 299.891 456.248 313.829C383.138 333.084 313.258 319.044 278.11 308.961C266.639 305.71 256.287 299.353 248.193 290.589C240.099 281.824 234.577 270.993 232.235 259.288C227.244 234.475 226.215 207.177 229.176 178.159C232.083 148.786 227.558 119.153 216.017 91.9921C205.411 67.3949 193.65 56.6834 190.819 55.7682C188.973 55.2813 187.315 54.2535 186.056 52.8166C184.797 51.3797 183.995 49.5992 183.753 47.703C183.73 47.5318 181.396 31.7422 169.534 21.2003C167.313 26.2097 165.086 33.5533 167.813 39.0139C168.755 40.9063 169.179 43.0147 169.043 45.1246C168.907 47.2346 168.216 49.2708 167.039 51.0263C165.862 52.7818 164.242 54.1939 162.344 55.1189C160.445 56.044 158.336 56.4491 156.23 56.293C149.012 55.7762 139.249 57.0754 133.746 66.2125C132.924 67.5799 131.773 68.7199 130.399 69.5292L86.253 95.5615C85.4344 96.0452 84.773 96.7557 84.3486 97.6074C83.9243 98.459 83.7551 99.4155 83.8613 100.361Z" fill="url(#paint1_radial_153_747)"/>
<path d="M113.5 282C113.5 277.304 114.251 268.351 114.903 261.503C112.946 262.481 107.957 260.174 96.9998 268C95.5 284.5 95.9999 299 95.9999 299C95.9999 299 105.576 288.934 113.5 282Z" fill="#FA5246" stroke="#FA5246" stroke-width="1.95662"/>
<path d="M228.5 206.5C228.5 202.538 229.145 190.514 229.805 182.259C233.437 178.958 240.503 174.929 247.635 169.382C248.625 164.43 246.66 187.934 246 198.5C237.085 201.472 236.424 202.538 228.5 206.5Z" fill="#FA5246" stroke="#FA5246" stroke-width="1.95662"/>
<defs>
<linearGradient id="paint0_linear_153_747" x1="392.254" y1="186.492" x2="392.254" y2="1003.42" gradientUnits="userSpaceOnUse">
<stop stop-color="#FA5246"/>
<stop offset="1" stop-color="#FFFEFA"/>
</linearGradient>
<radialGradient id="paint1_radial_153_747" cx="0" cy="0" r="1" gradientUnits="userSpaceOnUse" gradientTransform="translate(42.593 108.959) rotate(56.2745) scale(888.466 4222.75)">
<stop stop-color="#FA4667"/>
<stop offset="0.189152" stop-color="#FA5246"/>
<stop offset="0.190746" stop-color="#FFFEFA"/>
</radialGradient>
</defs>
</svg>
