<svg width="318" height="410" viewBox="0 0 318 410" fill="none" xmlns="http://www.w3.org/2000/svg">
<path d="M7.01828 40.2967L28.5351 27.6043C30.2277 25.1935 32.4225 23.1791 34.9681 21.7003C37.5136 20.2215 40.3493 19.3135 43.2794 19.0388C42.7434 14.5089 43.9547 9.37456 46.8636 4.11047C47.4019 3.1371 48.1375 2.28717 49.0231 1.61524C49.9087 0.943311 50.9248 0.464215 52.0061 0.208703C53.071 -0.0422107 54.1765 -0.0671749 55.2516 0.135416C56.3267 0.338007 57.3475 0.763667 58.2484 1.38503C66.5468 7.12633 69.7123 15.9055 70.8307 20.3383C76.2324 23.6756 82.2726 31.9352 86.95 42.6453C93.6138 58.1298 96.2381 75.0565 94.5763 91.8355C93.1662 105.653 93.6436 118.584 95.9945 130.272C96.8383 134.48 98.8251 138.373 101.736 141.522C104.647 144.672 108.37 146.956 112.494 148.123C129.45 152.987 163.123 159.77 198.14 150.548C223.813 143.787 250.14 152.684 258.382 155.921C267.733 149.96 278.083 148.792 289.184 152.461C301.945 156.673 310.492 164.308 314.588 175.152C323.572 198.936 307.531 230.204 304.043 236.54C303.91 239.618 303.636 242.838 303.205 246.214C299.094 278.187 306.947 299.886 311.994 309.974C313.555 313.094 314.457 316.502 314.644 319.986C314.831 323.471 314.299 326.956 313.081 330.225C309.801 338.972 305.821 351.924 305.497 363.95C305.33 371.05 305.755 378.151 306.769 385.18C307.477 390.808 308.088 395.676 307.386 401.27C307.097 403.545 305.991 405.635 304.274 407.152C302.557 408.668 300.347 409.506 298.057 409.509H267.287C266.18 409.508 265.09 409.235 264.114 408.711C263.138 408.188 262.306 407.431 261.692 406.509C261.078 405.586 260.701 404.526 260.594 403.423C260.487 402.319 260.654 401.206 261.08 400.183H248.453C247.364 400.181 246.291 399.914 245.328 399.403C244.366 398.893 243.542 398.155 242.928 397.254C242.265 396.293 241.854 395.18 241.734 394.018C241.614 392.857 241.789 391.683 242.241 390.607C245.045 383.943 249.561 378.143 255.33 373.795C258.817 371.153 260.1 366.109 260.896 361.521C263.145 348.55 261.025 340.049 258.571 330.206C256.448 321.691 254.061 312.096 254.025 298.31C253.01 297.557 251.97 296.825 250.878 296.139C237.167 287.527 228.161 277.458 222.249 267.715C214.946 273.771 206.782 278.7 198.025 282.339C188.506 286.311 178.303 288.379 167.991 288.427C156.544 288.376 145.249 285.804 134.905 280.893C136.251 290.992 139.201 300.811 143.643 309.977C145.204 313.097 146.106 316.505 146.292 319.99C146.479 323.474 145.947 326.959 144.73 330.228C141.449 338.975 137.469 351.928 137.146 363.954C136.979 371.053 137.404 378.153 138.417 385.181C139.125 390.814 139.737 395.679 139.035 401.274C138.745 403.547 137.638 405.637 135.921 407.153C134.204 408.669 131.995 409.506 129.706 409.509H98.9312C97.9646 409.509 97.0095 409.3 96.1308 408.897C95.2521 408.494 94.4706 407.906 93.8395 407.172C93.2084 406.439 92.7425 405.579 92.4737 404.649C92.2048 403.719 92.1393 402.743 92.2816 401.785L74.7148 401.496C74.6224 401.496 74.5304 401.491 74.4386 401.483C73.2964 401.398 72.1946 401.023 71.2374 400.393C70.2801 399.763 69.4989 398.9 68.9674 397.883C68.4359 396.867 68.1717 395.732 68.1997 394.586C68.2277 393.439 68.547 392.318 69.1274 391.33C72.7183 385.265 77.8502 380.262 84.0004 376.829C84.8443 376.351 85.7925 375.864 86.8058 375.346C89.6569 373.885 96.3228 370.465 95.6108 368.389C92.5235 359.376 93.0294 349.404 93.5646 338.847C94.1698 326.905 94.78 314.568 90.1433 302.901C87.7188 300.351 85.0729 298.023 82.2368 295.942C63.1971 282.019 54.4027 265.812 50.9903 250.65C34.5745 232.848 23.0398 206.557 18.4659 176.423C14.6144 151.053 16.2534 125.497 22.6431 111.326C31.5296 91.6152 32.5812 80.64 32.2888 75.5138C31.444 74.6131 30.5191 73.7913 29.5257 73.0583C29.4931 73.0331 29.4613 73.0086 29.4304 72.9833C25.9043 70.2884 22.1437 67.9162 18.1938 65.8952C17.6257 65.5965 16.9919 65.4453 16.3503 65.4555C12.6059 65.5906 8.94854 64.3055 6.10932 61.8571C3.27009 59.4087 1.45822 55.9774 1.03588 52.2492C0.778205 49.8916 1.20563 47.5096 2.26685 45.3894C3.32806 43.2692 4.97792 41.5008 7.01828 40.2967ZM261.225 381.61C258.035 384 255.335 386.985 253.273 390.4H267.764C269.939 388.066 272.375 385.992 275.026 384.22C276.753 383.086 278.185 381.556 279.203 379.757C280.22 377.958 280.794 375.941 280.878 373.875C281.322 359.757 280.195 329.134 264.325 308.481C265.083 315.017 266.33 321.486 268.055 327.835C270.662 338.3 273.128 348.184 270.526 363.197C269.406 369.664 267.424 376.909 261.225 381.603V381.61ZM91.2658 384.057C90.3485 384.527 89.4826 384.971 88.8106 385.351C85.7923 387.034 83.0796 389.215 80.7868 391.803L97.9186 392.086C100.445 389.056 103.394 386.407 106.675 384.22C108.402 383.086 109.833 381.556 110.851 379.757C111.869 377.958 112.443 375.941 112.526 373.875C112.928 360.706 111.302 347.554 107.704 334.882C106.603 331.127 105.273 327.443 103.721 323.852C103.84 329.19 103.582 334.398 103.331 339.346C102.842 348.934 102.387 357.99 104.861 365.215C108.322 375.311 97.2262 381.002 91.2658 384.057ZM10.7581 51.1716C10.9043 52.4392 11.5205 53.6057 12.4846 54.4401C13.4487 55.2744 14.6905 55.7159 15.9642 55.677C18.2361 55.6058 20.49 56.1012 22.5234 57.1184C26.3844 59.0951 30.091 61.3607 33.6117 63.8958C33.9994 64.1756 34.3685 64.4488 34.7261 64.7172C41.3871 66.4393 47.033 65.9882 51.5166 63.3573C58.9987 58.9686 61.2918 49.7725 61.3333 49.6167C61.4785 48.9906 61.7454 48.3992 62.1188 47.8763C62.4922 47.3534 62.9648 46.9094 63.5095 46.5694C64.0543 46.2294 64.6606 46.0002 65.2938 45.8949C65.9271 45.7896 66.5748 45.8102 67.2001 45.9556C67.8253 46.101 68.4159 46.3682 68.938 46.7422C69.4601 47.1161 69.9036 47.5893 70.2431 48.1349C70.5826 48.6805 70.8114 49.2876 70.9166 49.9217C71.0217 50.5559 71.0012 51.2045 70.856 51.8307C70.7314 52.3715 67.6864 65.1471 56.563 71.7417C52.2095 74.2969 47.2417 75.6128 42.1959 75.5472H42.0778C42.503 85.5345 38.9734 98.9105 31.5581 115.356C26.9149 125.655 24.0548 148.077 28.1368 174.955C31.5125 197.189 38.8414 217.089 49.1844 232.541C49.2365 229.458 49.4541 226.381 49.8361 223.323C51.6241 209.684 56.069 196.529 62.9185 184.605C63.6121 183.526 64.7013 182.763 65.9515 182.48C67.2016 182.197 68.5127 182.417 69.6023 183.093C70.6919 183.769 71.4728 184.846 71.7767 186.093C72.0807 187.34 71.8834 188.656 71.2274 189.759C65.0992 200.593 61.1163 212.51 59.4972 224.855C56.3716 250.662 65.9643 271.925 88.0082 288.042C121.57 312.584 122.739 360.183 122.298 374.186C122.164 377.811 121.169 381.353 119.394 384.516C117.619 387.679 115.116 390.372 112.093 392.371C109.089 394.344 106.456 396.832 104.314 399.72H129.376C129.858 395.469 129.353 391.452 128.719 386.401C127.645 378.879 127.196 371.282 127.374 363.686C127.734 350.302 132.035 336.231 135.58 326.783C136.325 324.776 136.65 322.638 136.534 320.5C136.417 318.363 135.862 316.272 134.904 314.359C129.357 303.273 120.717 279.517 125.158 244.964C125.23 244.318 125.43 243.694 125.746 243.126C126.061 242.559 126.487 242.06 126.997 241.659C127.507 241.257 128.092 240.962 128.717 240.789C129.343 240.617 129.996 240.571 130.64 240.654C131.283 240.737 131.904 240.947 132.465 241.273C133.026 241.598 133.517 242.033 133.909 242.55C134.301 243.068 134.587 243.658 134.748 244.287C134.91 244.917 134.945 245.572 134.852 246.214C133.846 253.891 133.505 261.64 133.833 269.375C153.546 280.266 173.764 281.633 193.976 273.417C202.59 269.865 210.568 264.93 217.595 258.806C210.214 242.13 211.078 228.254 211.154 227.268C211.249 225.973 211.854 224.769 212.835 223.921C213.816 223.072 215.094 222.649 216.387 222.744C217.679 222.839 218.882 223.445 219.729 224.427C220.576 225.41 220.998 226.689 220.904 227.984C220.803 229.462 218.851 264.465 256.071 287.843C270.386 296.835 280.45 311.487 285.983 331.393C290.443 347.448 290.984 363.524 290.648 374.186C290.514 377.812 289.519 381.354 287.744 384.517C285.968 387.68 283.465 390.373 280.442 392.372C277.439 394.345 274.807 396.832 272.666 399.72H297.728C298.21 395.47 297.705 391.453 297.07 386.402C295.997 378.88 295.547 371.282 295.725 363.686C296.085 350.302 300.386 336.231 303.931 326.783C304.676 324.776 305.001 322.638 304.885 320.5C304.769 318.363 304.214 316.272 303.255 314.359C297.709 303.273 289.068 279.515 293.51 244.964C299.155 201.061 275.1 187.388 274.107 186.844C272.968 186.234 272.116 185.197 271.738 183.96C271.359 182.723 271.485 181.387 272.088 180.243C272.691 179.099 273.722 178.24 274.955 177.855C276.188 177.469 277.523 177.588 278.668 178.186C279.646 178.7 297.303 188.397 302.635 215.72C306.606 204.629 309.803 190.124 305.44 178.597C302.394 170.551 296.072 165.042 286.124 161.756C277.149 158.79 269.21 159.982 261.854 165.398C261.156 165.912 260.334 166.23 259.473 166.321C258.611 166.413 257.741 166.273 256.951 165.918C256.661 165.786 227.617 152.906 200.628 160.013C163.351 169.831 127.722 162.672 109.8 157.531C103.952 155.874 98.6734 152.632 94.5464 148.163C90.4195 143.695 87.6039 138.172 86.41 132.204C83.8651 119.552 83.3405 105.634 84.85 90.8386C86.3325 75.862 84.0253 60.7527 78.141 46.9043C72.7328 34.3629 66.7366 28.9014 65.2931 28.4347C64.3519 28.1864 63.5062 27.6624 62.8643 26.9298C62.2224 26.1972 61.8136 25.2893 61.6901 24.3225C61.6787 24.2352 60.4886 16.1845 54.4402 10.8095C53.3079 13.3636 52.1723 17.1079 53.5629 19.8921C54.043 20.857 54.2594 21.932 54.19 23.0078C54.1207 24.0836 53.7681 25.1219 53.1681 26.017C52.5681 26.912 51.7421 27.632 50.7741 28.1037C49.8061 28.5754 48.7306 28.7819 47.657 28.7023C43.9767 28.4388 38.9987 29.1012 36.1932 33.76C35.7738 34.4572 35.1872 35.0385 34.4866 35.4511L11.9776 48.7243C11.5602 48.9709 11.223 49.3332 11.0066 49.7674C10.7902 50.2016 10.7039 50.6893 10.7581 51.1716Z" fill="#333333"/>
</svg>
