<svg width="358" height="464" viewBox="0 0 358 464" fill="none" xmlns="http://www.w3.org/2000/svg">
<path opacity="0.3" d="M6.85645 46.15L31.2069 31.8065C33.1223 29.082 35.6062 26.8057 38.487 25.1345C41.3677 23.4633 44.5769 22.4372 47.8928 22.1268C47.2862 17.0076 48.657 11.2054 51.949 5.25651C52.5582 4.15651 53.3906 3.19603 54.3929 2.43669C55.3951 1.67735 56.545 1.13593 57.7688 0.847181C58.9739 0.563627 60.225 0.535415 61.4417 0.764359C62.6583 0.993304 63.8136 1.47434 64.8332 2.17652C74.2243 8.66468 77.8067 18.5859 79.0724 23.5954C85.1854 27.3668 92.0211 36.7007 97.3145 48.804C104.856 66.3029 107.826 85.4314 105.945 104.393C104.349 120.008 104.89 134.621 107.55 147.83C108.505 152.585 110.753 156.984 114.048 160.544C117.343 164.103 121.555 166.684 126.223 168.002C145.411 173.5 183.519 181.165 223.148 170.743C252.201 163.103 281.996 173.158 291.322 176.816C301.905 170.079 313.618 168.759 326.181 172.905C340.622 177.665 350.295 186.293 354.931 198.548C365.098 225.425 346.944 260.762 342.997 267.922C342.846 271.4 342.536 275.039 342.048 278.854C337.396 314.986 346.283 339.507 351.995 350.908C353.761 354.434 354.782 358.285 354.994 362.223C355.205 366.16 354.603 370.099 353.225 373.794C349.513 383.678 345.008 398.315 344.642 411.906C344.453 419.929 344.935 427.954 346.082 435.897C346.883 442.258 347.574 447.758 346.78 454.081C346.453 456.651 345.201 459.013 343.258 460.727C341.315 462.44 338.814 463.387 336.223 463.391H301.4C300.147 463.39 298.914 463.081 297.809 462.489C296.705 461.898 295.763 461.043 295.068 460C294.373 458.958 293.947 457.76 293.826 456.513C293.705 455.266 293.894 454.008 294.375 452.852H280.086C278.853 452.85 277.64 452.548 276.55 451.971C275.46 451.394 274.528 450.56 273.833 449.541C273.083 448.455 272.618 447.198 272.482 445.885C272.347 444.572 272.544 443.246 273.056 442.03C276.229 434.5 281.34 427.944 287.869 423.031C291.815 420.046 293.267 414.345 294.168 409.16C296.712 394.503 294.314 384.895 291.536 373.771C289.134 364.149 286.433 353.306 286.392 337.726C285.243 336.875 284.066 336.048 282.831 335.273C267.314 325.541 257.122 314.162 250.431 303.152C242.167 309.995 232.927 315.565 223.017 319.679C212.244 324.167 200.698 326.503 189.028 326.558C176.074 326.501 163.291 323.594 151.585 318.044C153.108 329.457 156.446 340.553 161.473 350.912C163.24 354.437 164.26 358.289 164.472 362.226C164.683 366.164 164.081 370.103 162.703 373.797C158.991 383.682 154.486 398.319 154.12 411.909C153.931 419.932 154.413 427.956 155.559 435.898C156.361 442.264 157.053 447.762 156.258 454.084C155.93 456.654 154.678 459.015 152.735 460.728C150.791 462.441 148.291 463.387 145.701 463.391H110.873C109.78 463.391 108.699 463.155 107.704 462.699C106.71 462.243 105.825 461.579 105.111 460.75C104.397 459.922 103.87 458.949 103.566 457.899C103.261 456.848 103.187 455.744 103.348 454.662L83.468 454.335C83.3635 454.335 83.2593 454.33 83.1554 454.321C81.8628 454.225 80.6159 453.801 79.5326 453.089C78.4493 452.377 77.5652 451.401 76.9637 450.253C76.3623 449.105 76.0632 447.822 76.0949 446.526C76.1266 445.23 76.4879 443.964 77.1448 442.847C81.2086 435.993 87.0163 430.339 93.9764 426.46C94.9315 425.92 96.0045 425.369 97.1513 424.784C100.378 423.133 107.922 419.268 107.116 416.922C103.622 406.737 104.194 395.467 104.8 383.537C105.485 370.042 106.176 356.099 100.928 342.914C98.1845 340.033 95.1901 337.402 91.9805 335.051C70.4335 319.316 60.481 301.001 56.6192 283.867C38.0416 263.749 24.9879 234.038 19.8116 199.984C15.4529 171.314 17.3077 142.433 24.5389 126.419C34.5957 104.144 35.7858 91.7413 35.4549 85.9482C34.4988 84.9304 33.4521 84.0016 32.3279 83.1734C32.291 83.1448 32.255 83.1172 32.22 83.0886C28.2296 80.0431 23.9737 77.3623 19.5036 75.0784C18.8607 74.7409 18.1435 74.5701 17.4174 74.5815C13.1799 74.7342 9.04091 73.2819 5.82778 70.515C2.61465 67.7481 0.564167 63.8705 0.0862021 59.6573C-0.205403 56.993 0.278317 54.3012 1.47928 51.9052C2.68025 49.5091 4.54739 47.5107 6.85645 46.15V46.15ZM294.54 431.862C290.93 434.564 287.874 437.937 285.541 441.796H301.94C304.401 439.158 307.159 436.815 310.159 434.812C312.113 433.531 313.733 431.802 314.885 429.768C316.037 427.735 316.687 425.456 316.781 423.121C317.283 407.167 316.008 372.56 298.048 349.221C298.906 356.607 300.317 363.918 302.269 371.092C305.219 382.919 308.011 394.089 305.066 411.054C303.798 418.363 301.555 426.551 294.54 431.855V431.862ZM102.199 434.628C101.161 435.159 100.181 435.661 99.4201 436.09C96.0044 437.992 92.9344 440.457 90.3396 443.381L109.728 443.701C112.586 440.278 115.924 437.284 119.637 434.812C121.591 433.531 123.211 431.802 124.363 429.768C125.515 427.735 126.165 425.456 126.259 423.121C126.714 408.24 124.873 393.377 120.801 379.056C119.556 374.812 118.05 370.65 116.294 366.591C116.429 372.624 116.136 378.509 115.852 384.101C115.299 394.936 114.784 405.17 117.585 413.335C121.501 424.745 108.944 431.176 102.199 434.628ZM11.0888 58.4395C11.2542 59.872 11.9515 61.1903 13.0426 62.1332C14.1337 63.0761 15.5391 63.5749 16.9805 63.531C19.5515 63.4506 22.1023 64.0103 24.4034 65.16C28.7729 67.3938 32.9677 69.954 36.952 72.8189C37.3908 73.1351 37.8084 73.4439 38.2131 73.7472C45.7513 75.6933 52.1408 75.1835 57.2148 72.2104C65.6822 67.2508 68.2773 56.8585 68.3243 56.6824C68.4886 55.9748 68.7906 55.3065 69.2132 54.7156C69.6358 54.1247 70.1706 53.6228 70.7871 53.2386C71.4036 52.8545 72.0898 52.5955 72.8064 52.4764C73.523 52.3574 74.256 52.3807 74.9636 52.545C75.6713 52.7093 76.3396 53.0113 76.9305 53.4339C77.5213 53.8565 78.0232 54.3913 78.4074 55.0078C78.7916 55.6243 79.0506 56.3105 79.1696 57.0271C79.2886 57.7437 79.2653 58.4767 79.101 59.1844C78.96 59.7956 75.514 74.233 62.9258 81.6855C57.9989 84.5731 52.3769 86.0601 46.6667 85.986H46.533C47.0142 97.2725 43.0198 112.389 34.6279 130.974C29.3732 142.612 26.1365 167.951 30.756 198.326C34.5763 223.451 42.8704 245.94 54.5755 263.402C54.6345 259.919 54.8806 256.441 55.313 252.985C57.3365 237.571 62.3667 222.706 70.1183 209.231C70.9032 208.011 72.1358 207.148 73.5506 206.829C74.9654 206.509 76.4491 206.758 77.6822 207.522C78.9153 208.285 79.799 209.503 80.143 210.912C80.487 212.321 80.2638 213.809 79.5214 215.055C72.5861 227.298 68.0787 240.765 66.2464 254.717C62.7092 283.88 73.5652 307.909 98.512 326.122C136.493 353.857 137.816 407.648 137.317 423.472C137.166 427.57 136.04 431.572 134.031 435.146C132.022 438.721 129.189 441.764 125.768 444.024C122.369 446.253 119.389 449.064 116.965 452.328H145.328C145.873 447.524 145.302 442.985 144.584 437.277C143.369 428.777 142.86 420.191 143.062 411.607C143.469 396.482 148.337 380.58 152.349 369.903C153.192 367.636 153.559 365.219 153.428 362.803C153.296 360.388 152.668 358.025 151.583 355.863C145.306 343.336 135.528 316.489 140.554 277.441C140.636 276.711 140.862 276.005 141.219 275.364C141.576 274.723 142.058 274.159 142.635 273.706C143.213 273.252 143.875 272.919 144.582 272.724C145.29 272.529 146.03 272.477 146.758 272.57C147.486 272.664 148.188 272.902 148.823 273.27C149.459 273.638 150.014 274.129 150.458 274.713C150.902 275.298 151.224 275.966 151.407 276.677C151.591 277.388 151.63 278.128 151.524 278.854C150.386 287.529 150 296.286 150.371 305.027C172.681 317.335 195.561 318.88 218.435 309.596C228.183 305.582 237.211 300.004 245.164 293.083C236.812 274.238 237.789 258.557 237.876 257.443C237.983 255.98 238.667 254.619 239.777 253.661C240.888 252.702 242.334 252.224 243.797 252.331C245.26 252.438 246.62 253.122 247.579 254.233C248.538 255.343 249.016 256.789 248.909 258.252C248.794 259.923 246.585 299.478 288.708 325.898C304.907 336.059 316.297 352.618 322.558 375.113C327.606 393.257 328.217 411.424 327.838 423.473C327.686 427.571 326.56 431.573 324.551 435.147C322.542 438.722 319.709 441.765 316.287 444.025C312.889 446.255 309.911 449.065 307.487 452.328H335.85C336.395 447.525 335.824 442.986 335.106 437.278C333.891 428.777 333.382 420.191 333.584 411.607C333.991 396.482 338.859 380.58 342.87 369.903C343.713 367.636 344.081 365.219 343.949 362.804C343.818 360.388 343.19 358.025 342.105 355.863C335.828 343.336 326.049 316.487 331.076 277.441C337.465 227.827 310.242 212.376 309.118 211.76C307.829 211.071 306.865 209.9 306.437 208.502C306.009 207.104 306.152 205.594 306.834 204.301C307.516 203.008 308.682 202.038 310.078 201.602C311.473 201.167 312.984 201.301 314.281 201.976C315.387 202.557 335.369 213.515 341.403 244.393C345.897 231.86 349.516 215.467 344.578 202.441C341.131 193.349 333.976 187.123 322.718 183.409C312.561 180.058 303.577 181.405 295.252 187.525C294.462 188.105 293.532 188.465 292.557 188.569C291.582 188.672 290.597 188.514 289.703 188.112C289.375 187.964 256.506 173.408 225.963 181.44C183.777 192.534 143.455 184.444 123.174 178.634C116.555 176.762 110.582 173.098 105.911 168.048C101.241 162.999 98.0545 156.758 96.7033 150.013C93.8234 135.716 93.2297 119.987 94.9379 103.267C96.6157 86.3418 94.0046 69.267 87.3454 53.6172C81.225 39.4442 74.4391 33.2723 72.8055 32.745C71.7404 32.4644 70.7834 31.8722 70.0569 31.0442C69.3305 30.2163 68.8678 29.1904 68.7281 28.0978C68.7152 27.9992 67.3683 18.9012 60.5234 12.8269C59.242 15.7133 57.9569 19.9447 59.5305 23.0911C60.0739 24.1815 60.3188 25.3964 60.2403 26.6121C60.1618 27.8279 59.7628 29.0012 59.0838 30.0127C58.4048 31.0242 57.47 31.8378 56.3745 32.3709C55.279 32.9039 54.0619 33.1373 52.8469 33.0474C48.6819 32.7496 43.0483 33.4982 39.8734 38.763C39.3988 39.5509 38.7349 40.2077 37.9421 40.674L12.4688 55.6739C11.9965 55.9525 11.6148 56.3619 11.37 56.8527C11.1251 57.3434 11.0275 57.8945 11.0888 58.4395V58.4395Z" fill="#333333" fill-opacity="0.1"/>
</svg>
