<svg width="58" height="58" viewBox="0 0 58 58" fill="none" xmlns="http://www.w3.org/2000/svg">
<circle cx="28.5" cy="29.5" r="25.5" fill="#FA5246" stroke="#FA5246" stroke-width="4"/>
<mask id="mask0_39_657" style="mask-type:alpha" maskUnits="userSpaceOnUse" x="1" y="2" width="55" height="55">
<circle cx="28.5002" cy="29.5" r="27.0417" fill="#D9D9D9"/>
</mask>
<g mask="url(#mask0_39_657)">
<path d="M42.1551 24.8264L35.9363 21.1633C35.4472 20.4675 34.8128 19.8862 34.0771 19.4594C33.3414 19.0326 32.5218 18.7705 31.675 18.6913C31.8299 17.3839 31.4798 15.9021 30.6391 14.3828C30.4835 14.1019 30.2709 13.8566 30.015 13.6627C29.759 13.4688 29.4654 13.3305 29.1528 13.2568C28.845 13.1844 28.5255 13.1771 28.2148 13.2356C27.9041 13.2941 27.6091 13.4169 27.3487 13.5963C24.9503 15.2532 24.0354 17.787 23.7122 19.0663C22.151 20.0295 20.4053 22.4132 19.0534 25.5042C17.1275 29.9732 16.369 34.8583 16.8493 39.7008C17.2569 43.6886 17.1189 47.4207 16.4394 50.794C16.1956 52.0083 15.6213 53.1318 14.78 54.0408C13.9386 54.9498 12.8627 55.6089 11.6707 55.9457C6.7702 57.3496 -2.96189 59.3072 -13.0824 56.6456C-20.5024 54.6944 -28.1113 57.2622 -30.4932 58.1964C-33.196 56.4759 -36.1871 56.139 -39.3956 57.1977C-43.0837 58.4133 -45.5538 60.6169 -46.7378 63.7465C-49.3344 70.6106 -44.6983 79.635 -43.6901 81.4636C-43.6515 82.3519 -43.5724 83.2811 -43.4479 84.2556C-42.2596 93.4831 -44.5295 99.7454 -45.9882 102.657C-46.4392 103.557 -46.6999 104.541 -46.7539 105.547C-46.808 106.552 -46.6542 107.558 -46.3023 108.502C-45.3542 111.026 -44.2039 114.764 -44.1104 118.235C-44.0621 120.284 -44.185 122.333 -44.4779 124.362C-44.6825 125.986 -44.8591 127.391 -44.6564 129.006C-44.5728 129.662 -44.253 130.265 -43.7567 130.703C-43.2605 131.141 -42.6218 131.383 -41.9602 131.383H-33.0669C-32.747 131.383 -32.432 131.304 -32.1499 131.153C-31.8678 131.002 -31.6273 130.784 -31.4499 130.518C-31.2724 130.251 -31.1634 129.945 -31.1325 129.627C-31.1017 129.308 -31.1499 128.987 -31.2729 128.692H-27.6237C-27.3089 128.691 -26.9989 128.614 -26.7206 128.467C-26.4423 128.32 -26.2042 128.107 -26.0268 127.846C-25.8351 127.569 -25.7165 127.248 -25.6818 126.913C-25.6471 126.577 -25.6975 126.239 -25.8283 125.928C-26.6386 124.005 -27.9438 122.331 -29.6113 121.076C-30.6191 120.314 -30.9899 118.858 -31.22 117.534C-31.8698 113.79 -31.2572 111.337 -30.5478 108.496C-29.9343 106.039 -29.2444 103.269 -29.2341 99.2906C-28.9407 99.0733 -28.6401 98.8621 -28.3246 98.6641C-24.3618 96.1786 -21.7589 93.2727 -20.0503 90.4609C-17.9397 92.2084 -15.5799 93.631 -13.049 94.6815C-10.2979 95.8277 -7.34912 96.4245 -4.36884 96.4383C-1.06049 96.4238 2.20415 95.6815 5.19351 94.2641C4.80456 97.1787 3.95204 100.012 2.66825 102.658C2.21719 103.558 1.95651 104.542 1.90247 105.548C1.84843 106.553 2.00221 107.559 2.35419 108.503C3.30228 111.027 4.4526 114.765 4.54607 118.236C4.59436 120.285 4.47143 122.334 4.17856 124.362C3.97397 125.988 3.79716 127.392 4.0001 129.007C4.08388 129.663 4.40379 130.266 4.90001 130.703C5.39623 131.141 6.03478 131.383 6.69628 131.383H15.5907C15.87 131.383 16.1461 131.323 16.4 131.207C16.654 131.09 16.8799 130.921 17.0623 130.709C17.2447 130.498 17.3793 130.249 17.457 129.981C17.5347 129.712 17.5537 129.431 17.5125 129.154L22.5896 129.071C22.6163 129.071 22.6429 129.07 22.6695 129.067C22.9996 129.043 23.318 128.934 23.5947 128.753C23.8713 128.571 24.0971 128.321 24.2507 128.028C24.4043 127.735 24.4807 127.407 24.4726 127.076C24.4645 126.746 24.3722 126.422 24.2045 126.137C23.1666 124.386 21.6834 122.942 19.9059 121.952C19.662 121.814 19.388 121.673 19.0951 121.524C18.2711 121.102 16.3446 120.115 16.5503 119.516C17.4426 116.915 17.2964 114.037 17.1417 110.99C16.9668 107.543 16.7905 103.983 18.1305 100.616C18.8313 99.8798 19.596 99.2077 20.4157 98.6073C25.9184 94.589 28.4602 89.9116 29.4464 85.5359C34.1908 80.398 37.5246 72.8102 38.8465 64.1133C39.9596 56.7914 39.486 49.4157 37.6392 45.3258C35.0709 39.6373 34.7669 36.4697 34.8515 34.9903C35.0956 34.7304 35.3629 34.4932 35.65 34.2816C35.6595 34.2743 35.6686 34.2673 35.6776 34.26C36.6967 33.4822 37.7836 32.7976 38.9252 32.2143C39.0893 32.1281 39.2725 32.0845 39.4579 32.0874C40.5401 32.1264 41.5972 31.7555 42.4178 31.0489C43.2384 30.3423 43.762 29.352 43.8841 28.276C43.9586 27.5956 43.835 26.9081 43.5283 26.2962C43.2216 25.6843 42.7448 25.1739 42.1551 24.8264V24.8264ZM-31.3151 123.332C-30.393 124.021 -29.6126 124.883 -29.0168 125.868H-33.2049C-33.8333 125.195 -34.5376 124.596 -35.3038 124.085C-35.8029 123.758 -36.2167 123.316 -36.5108 122.797C-36.8049 122.277 -36.9709 121.696 -36.9949 121.099C-37.1232 117.025 -36.7976 108.187 -32.2109 102.226C-32.43 104.112 -32.7903 105.98 -33.2889 107.812C-34.0423 110.832 -34.7552 113.685 -34.0033 118.017C-33.6793 119.884 -33.1065 121.975 -31.3151 123.33V123.332ZM17.8061 124.038C18.0712 124.173 18.3215 124.302 18.5157 124.411C19.388 124.897 20.1721 125.526 20.8347 126.273L15.8833 126.355C15.1532 125.481 14.3009 124.716 13.3527 124.085C12.8536 123.758 12.4398 123.316 12.1457 122.797C11.8515 122.277 11.6856 121.696 11.6616 121.099C11.5453 117.299 12.0154 113.503 13.0553 109.845C13.3734 108.762 13.7578 107.699 14.2063 106.662C14.172 108.203 14.2466 109.706 14.3191 111.134C14.4604 113.901 14.592 116.515 13.8767 118.6C12.8766 121.514 16.0835 123.156 17.8061 124.038ZM41.0742 27.965C41.0319 28.3308 40.8539 28.6675 40.5752 28.9083C40.2966 29.1491 39.9377 29.2765 39.5695 29.2653C38.9129 29.2447 38.2615 29.3877 37.6738 29.6813C36.5579 30.2518 35.4867 30.9056 34.4691 31.6373C34.3571 31.718 34.2504 31.7969 34.147 31.8743C32.2219 32.3713 30.5901 32.2411 29.2943 31.4819C27.1318 30.2152 26.4691 27.5612 26.4571 27.5162C26.4151 27.3355 26.338 27.1648 26.2301 27.0139C26.1222 26.863 25.9856 26.7349 25.8281 26.6368C25.6707 26.5386 25.4955 26.4725 25.3124 26.4421C25.1294 26.4117 24.9422 26.4177 24.7615 26.4596C24.5808 26.5016 24.4101 26.5787 24.2592 26.6866C24.1083 26.7945 23.9802 26.9311 23.882 27.0886C23.7839 27.246 23.7178 27.4213 23.6874 27.6043C23.657 27.7873 23.6629 27.9745 23.7049 28.1552C23.7409 28.3113 24.621 31.9984 27.8358 33.9016C29.094 34.6391 30.5298 35.0189 31.9881 34.9999H32.0223C31.8994 37.8823 32.9195 41.7427 35.0626 46.4891C36.4046 49.4614 37.2312 55.9325 36.0515 63.6898C35.0758 70.1065 32.9576 75.8497 29.9683 80.3092C29.9533 79.4197 29.8904 78.5316 29.78 77.6489C29.2632 73.7126 27.9786 69.916 25.999 66.4747C25.7985 66.1632 25.4837 65.943 25.1224 65.8613C24.7611 65.7797 24.3821 65.8432 24.0672 66.0383C23.7523 66.2334 23.5266 66.5443 23.4388 66.9042C23.3509 67.264 23.4079 67.644 23.5975 67.9622C25.3687 71.089 26.5198 74.5282 26.9878 78.0912C27.8911 85.5392 25.1187 91.6757 18.7476 96.3272C9.04777 103.41 8.70993 117.148 8.8373 121.189C8.8759 122.235 9.16365 123.257 9.67664 124.17C10.1896 125.083 10.9131 125.86 11.7868 126.437C12.6549 127.007 13.4159 127.725 14.035 128.558H6.79163C6.65225 127.331 6.79822 126.172 6.98162 124.714C7.29176 122.544 7.42177 120.351 7.37032 118.159C7.26626 114.296 6.02317 110.235 4.99857 107.508C4.78317 106.929 4.68935 106.312 4.72297 105.695C4.75659 105.078 4.91692 104.475 5.19398 103.922C6.79704 100.723 9.29428 93.8669 8.0107 83.8947C7.98985 83.7083 7.9321 83.528 7.84085 83.3643C7.7496 83.2005 7.62666 83.0565 7.47919 82.9407C7.33173 82.8249 7.16269 82.7397 6.98194 82.6899C6.80118 82.6401 6.61233 82.6268 6.42639 82.6508C6.24044 82.6747 6.06112 82.7355 5.89888 82.8294C5.73664 82.9234 5.59473 83.0487 5.48143 83.1981C5.36812 83.3475 5.28568 83.5179 5.23892 83.6994C5.19215 83.881 5.182 84.0701 5.20904 84.2556C5.49973 86.471 5.59828 88.7074 5.50357 90.9398C-0.193906 94.083 -6.03735 94.4776 -11.8789 92.1066C-14.3684 91.0814 -16.6741 89.657 -18.7051 87.8895C-16.572 83.0768 -16.8216 79.072 -16.8437 78.7874C-16.8711 78.4138 -17.0458 78.0663 -17.3294 77.8215C-17.613 77.5767 -17.9823 77.4545 -18.3559 77.4819C-18.7296 77.5093 -19.077 77.6841 -19.3218 77.9677C-19.5667 78.2512 -19.6888 78.6205 -19.6614 78.9941C-19.6322 79.4207 -19.0681 89.5227 -29.8255 96.2697C-33.9625 98.8649 -36.8713 103.094 -38.4704 108.839C-39.7596 113.472 -39.9157 118.112 -39.8187 121.189C-39.7801 122.236 -39.4923 123.258 -38.9793 124.171C-38.4662 125.083 -37.7427 125.861 -36.8689 126.438C-36.0011 127.007 -35.2404 127.725 -34.6215 128.558H-41.8648C-42.0042 127.332 -41.8582 126.172 -41.6748 124.714C-41.3646 122.544 -41.2346 120.351 -41.2861 118.159C-41.3902 114.296 -42.6333 110.235 -43.6577 107.508C-43.8731 106.929 -43.9669 106.312 -43.9334 105.695C-43.8998 105.078 -43.7395 104.475 -43.4625 103.922C-41.8594 100.723 -39.3619 93.8664 -40.6458 83.8947C-42.2773 71.2239 -35.325 67.278 -35.038 67.1208C-34.7088 66.9448 -34.4626 66.6456 -34.3533 66.2886C-34.244 65.9317 -34.2804 65.546 -34.4546 65.2158C-34.6288 64.8856 -34.9267 64.6378 -35.283 64.5266C-35.6394 64.4153 -36.0253 64.4497 -36.3564 64.6221C-36.6389 64.7704 -41.7422 67.569 -43.2831 75.4546C-44.4308 72.2539 -45.3549 68.0674 -44.0939 64.7408C-43.2136 62.4187 -41.3864 60.8288 -38.5113 59.8803C-35.9173 59.0245 -33.6228 59.3684 -31.4968 60.9315C-31.295 61.0797 -31.0575 61.1716 -30.8086 61.198C-30.5596 61.2243 -30.3081 61.1841 -30.0798 61.0814C-29.996 61.0435 -21.6016 57.3263 -13.8015 59.3774C-3.02781 62.2108 7.26979 60.1446 12.4493 58.661C14.1396 58.1826 15.6652 57.2471 16.8579 55.9574C18.0507 54.6678 18.8644 53.0739 19.2095 51.3515C19.945 47.7001 20.0966 43.6832 19.6604 39.4131C19.2319 35.0908 19.8988 30.7302 21.5994 26.7334C23.1625 23.1139 24.8955 21.5377 25.3127 21.403C25.5847 21.3313 25.8291 21.1801 26.0146 20.9686C26.2001 20.7572 26.3183 20.4952 26.354 20.2162C26.3573 20.191 26.7012 17.8675 28.4493 16.3162C28.7766 17.0534 29.1048 18.134 28.7029 18.9375C28.5641 19.216 28.5016 19.5263 28.5216 19.8367C28.5417 20.1472 28.6436 20.4469 28.817 20.7052C28.9904 20.9635 29.2291 21.1713 29.5089 21.3074C29.7887 21.4436 30.0995 21.5032 30.4098 21.4802C31.4735 21.4042 32.9122 21.5953 33.723 22.9399C33.8442 23.1411 34.0138 23.3089 34.2163 23.4279L40.7218 27.2587C40.8424 27.3298 40.9398 27.4344 41.0024 27.5597C41.0649 27.685 41.0898 27.8258 41.0742 27.965V27.965Z" fill="white"/>
</g>
<circle cx="29" cy="29" r="27" stroke="white" stroke-width="4"/>
<path d="M30.2991 19.3774C30.2991 15.6815 29.0045 14.3176 28.3571 14.0976C27.7098 13.6244 27.0625 14.7576 23.8259 20.0374C18 24.6572 18 39.8367 18.6473 43.1366C19.2946 46.4365 18 49.7364 18 52.3763C26.2857 57.1281 34.3988 54.3562 37.4196 52.3763C37.4196 51.7163 37.1607 49.3404 36.125 45.1165C34.183 40.4967 32.8884 35.2169 34.183 33.2369C35.2187 31.653 37.6354 30.817 38.7143 30.597H40.6562C42.7277 29.0131 41.9509 26.8572 41.3036 25.9772C39.3616 24.8772 35.3482 22.5453 34.8303 22.0173C34.183 21.3573 34.183 20.6974 30.2991 19.3774Z" fill="white"/>
<path d="M34.183 33.2369C35.2187 31.653 37.6354 30.817 38.7143 30.597C38.4985 30.597 38.5848 30.597 40.6562 30.597C42.7277 29.0131 41.9509 26.8571 41.3036 25.9772C39.3616 24.8772 35.3482 22.5453 34.8303 22.0173C34.183 21.3573 34.183 20.6974 30.2991 19.3774C30.2991 15.6815 29.0045 14.3176 28.3571 14.0976C27.7098 13.6244 27.0625 14.7576 23.8259 20.0374C18 24.6572 18 39.8367 18.6473 43.1366C19.2946 46.4365 18 49.7364 18 52.3763C26.2857 57.1281 34.3988 54.3562 37.4196 52.3763C37.4196 51.7163 37.1607 49.3404 36.125 45.1165C34.183 40.4967 32.8884 35.2169 34.183 33.2369ZM34.183 33.2369C31.5937 33.8969 30.2991 33.2369 28.3571 32.577C26.8036 32.049 25.5521 29.2771 25.1205 27.9571" stroke="white"/>
<path d="M35.5654 35.5C33.8988 35.3333 28.8654 34.3 28.0654 33.5C27.0654 32.5 24.5654 30 25.0654 29" stroke="#FA5246" stroke-width="2"/>
</svg>
